<svg width="149" height="105" viewBox="0 0 149 105" fill="none" xmlns="http://www.w3.org/2000/svg">
<path d="M46.5271 0L62.9562 0.00181775C64.1893 0.0221271 65.4012 0.212793 66.6361 0.225221L74.0657 0.271599C75.9506 0.34738 80.0188 0.535316 81.5475 0.872997C88.7288 2.45834 88.5248 8.40171 88.5287 14.4936L88.5418 23.0548L99.8511 21.4876C104.621 21.0093 109.499 21.0687 113.425 24.166C116.718 26.7644 118.082 30.6587 119.938 34.2531L125.166 43.7994C126.09 45.4315 126.379 45.1074 128.066 45.6758C131.65 46.8825 135.516 48.296 138.622 50.4843C145.479 55.3155 149.339 64.528 148.096 72.807L148.069 72.9828C147.567 76.289 145.987 80.243 142.938 81.8995C139.021 84.0281 134.235 84.3624 129.855 84.4136L129.054 88.0442C124.351 104.205 104.406 106.509 95.9862 92.0081C95.1866 90.4673 94.9532 89.4358 94.4958 87.8562L56.459 89.2373C56.3529 89.7383 56.356 90.2494 56.262 90.7526C54.9492 97.7963 49.4123 102.934 42.3798 104.307C32.8792 106.163 23.4511 98.5584 21.4454 89.444C21.4354 89.3997 21.3153 88.9205 21.2974 88.9096C20.1216 88.1824 9.40402 89.5752 5.47764 87.0469L5.23545 86.892C0.344705 83.7744 1.52917 74.8143 1.38394 69.9428C1.35875 69.0973 1.19618 68.2647 1.17439 67.4195L0.958807 50.4894C0.929252 49.9129 0.823947 49.3357 0.805244 48.7619L0.768475 41.9289L0.194963 26.5668L0.15895 19.7825C0.124697 15.9141 -0.669764 12.0959 1.64381 8.65907C3.98718 5.17798 8.95297 4.41683 12.7278 3.56384C18.8952 2.17007 25.2338 1.30162 31.5337 0.785699L35.4649 0.569872C36.2585 0.515309 37.0281 0.336772 37.8208 0.290091L43.4862 0.21431C44.4601 0.198547 45.4744 0.210973 46.432 0.0200045L46.5271 0Z" fill="#161517"/>
<path d="M75.8263 79.0956L75.9109 79.239C76.1491 79.6852 76.4113 79.9459 76.492 80.466L76.5153 80.6109C76.555 80.8677 76.5771 81.0902 76.5429 81.3506C76.2422 81.5249 75.9794 81.4985 75.6396 81.4933L75.8263 79.0956Z" fill="#BA84F6"/>
<path d="M137.056 64.7802L143.757 64.7751C143.987 66.1849 144.149 67.6672 144.119 69.0949L137.122 69.2601C136.994 68.9518 137.066 68.3762 137.065 68.0331L137.056 64.7802Z" fill="#AFDE2E"/>
<path d="M91.4766 84.4928L87.9489 84.47L88.5309 26.0921C88.8552 25.9211 89.3605 25.9645 89.7306 25.9305L92.9216 25.6295C91.4202 29.4716 91.5497 31.4435 91.5521 35.4453L91.5736 42.3356C91.5979 43.0541 91.7152 43.7664 91.754 44.4845L91.808 48.3539C91.8319 49.0256 91.9444 49.6892 91.9613 50.3618L91.9868 69.2113C91.9874 71.1613 92.3263 83.537 91.4766 84.4928Z" fill="white"/>
<path d="M115.059 46.5655C113.839 46.8134 112.553 46.8974 111.313 46.9971L105.3 47.2714C103.783 47.2708 102.214 47.3499 100.737 46.9413C99.6898 46.6518 99.6992 45.1283 99.5228 44.2065L98.8441 40.4202C98.4503 38.0619 97.6152 35.2519 98.2966 32.8733C100.093 32.3947 102.125 32.525 103.973 32.518L110.995 32.4871C112.486 32.4577 113.93 32.1843 115.435 32.1773L117.03 35.3216C117.311 35.8888 117.686 36.5072 117.842 37.1183C118.48 38.1301 118.896 39.3544 119.418 40.4375L121.313 44.2344C121.471 44.5388 121.98 45.2845 121.979 45.5927L117.498 46.2305C116.796 46.3421 115.737 46.664 115.059 46.5655Z" fill="white"/>
<path d="M5.9487 82.9856C3.79985 79.2678 4.52037 67.1498 4.46733 62.742C4.44793 61.117 4.1836 59.5168 4.12146 57.9005L3.4361 24.9178C3.37335 22.139 3.49157 19.3391 3.17993 16.5731C2.40593 9.70424 4.86351 8.31653 11.0012 6.77545C14.8142 5.81848 18.7766 5.11099 22.6754 4.59022L28.9504 3.86151C31.2027 3.55596 34.7553 3.46411 37.2082 3.37378L63.2669 3.37894C64.3306 3.40773 65.3848 3.61052 66.4403 3.6372L73.6535 3.69358C76.5805 3.80604 81.4429 3.96002 83.5966 5.59508C82.2868 6.8097 71.9918 6.22861 69.661 6.26347L64.1196 6.46293C63.2087 6.50597 62.3175 6.66723 61.3948 6.68542L57.7619 6.70967C55.442 6.72119 53.1104 6.97188 50.7885 7.1004L44.2516 7.58024C37.2012 8.15103 30.2351 9.23652 23.2541 10.3432C19.378 10.9577 15.2853 11.359 11.5814 12.7122C4.65193 15.2432 5.33517 21.3491 5.19665 27.3804L5.22514 51.8095C5.23545 56.2203 5.49644 60.6189 5.59617 65.0731L5.75379 74.3563C5.77531 74.9764 5.90111 75.5857 5.92142 76.2059L5.9487 82.9856Z" fill="white"/>
<path d="M37.4546 71.4578C55.282 69.5066 59.5473 98.5947 40.0193 100.5C32.1481 101.337 25.2232 95.6135 24.3384 87.7956C23.4566 80.0038 29.6549 72.2665 37.4546 71.4578Z" fill="white"/>
<path d="M38.4992 78.4688C42.4404 78.0744 45.9633 81.5888 46.5059 85.3194C47.1179 89.5258 43.3237 93.3449 39.3231 93.7826C29.0314 93.8669 27.9528 79.4791 38.4992 78.4688Z" fill="#161517"/>
<path d="M38.1727 81.2987C44.2273 81.0438 44.8866 89.8093 39.2206 91.146C32.9753 91.1197 31.7768 82.3185 38.1727 81.2987Z" fill="#AFDE2E"/>
<path d="M110.837 68.6163C117.327 68.0019 123.54 72.7567 125.306 78.9286C127.965 88.2227 122.036 96.9815 112.406 97.7502C104.726 97.8115 98.1311 94.4016 97.1057 85.9602L97.0829 85.7807C96.0326 76.7428 101.927 69.6854 110.837 68.6163Z" fill="white"/>
<path d="M110.935 75.62C121.21 75.212 122.887 88.6953 112.584 90.738C100.555 90.9566 101.647 76.8616 110.935 75.62Z" fill="#161517"/>
<path d="M110.965 78.2587C117.186 77.9304 118.12 87.2175 111.971 88.2724C105.515 88.4276 104.659 79.5633 110.965 78.2587Z" fill="#AFDE2E"/>
<path d="M92.9216 25.6295C99.1605 24.8199 109.313 22.3812 113.178 29.1588L113.172 29.2322C109.763 29.7811 106.17 29.5407 102.718 29.5495C99.3724 29.558 96.1508 29.093 95.1329 33.1028L95.1011 33.2219C94.6467 35.0928 95.3782 38.8946 95.6685 40.7803C96.2154 44.332 96.2739 49.4564 100.731 50.1978C103.951 50.7331 107.258 50.6467 110.508 50.6522L117.791 50.5852C118.572 50.5406 119.35 50.3782 120.135 50.3224L124.407 50.1975C132.583 50.0587 138.601 52.4488 142.494 60.3892C142.72 60.8493 142.762 61.3192 143.077 61.7353C140.438 62.0348 135.255 60.7232 134.358 63.5574L134.304 63.7208C134.044 64.5878 134.142 65.605 134.145 66.5038C134.163 71.7351 133.988 72.5921 139.285 72.5748L144.305 72.553C143.096 79.2896 137.436 80.2484 131.493 80.2817C130.829 80.2854 129.951 80.4006 129.307 80.286L129.166 80.2366C126.118 60.5319 94.9047 59.7335 93.8216 84.6804C93.0665 84.6761 92.1553 84.7577 91.4433 84.4928C92.3263 83.537 91.9874 71.1613 91.9868 69.2113L91.9613 50.3618C91.9444 49.6892 91.8319 49.0256 91.808 48.3539L91.754 44.4845C91.7152 43.7664 91.5979 43.0541 91.5736 42.3356L91.5521 35.4453C91.5497 31.4435 91.4202 29.4716 92.9216 25.6295Z" fill="#BA84F6"/>
<path d="M107.65 56.1142C112.378 55.8544 112.602 59.6401 110.062 60.2425L109.923 60.2743C109.274 60.4343 108.656 60.428 107.991 60.4316C107.031 60.4337 105.528 60.4856 104.694 59.9627C103.632 59.2973 103.576 57.6489 104.36 56.7526C104.919 56.1142 106.844 56.1803 107.65 56.1142Z" fill="#161517"/>
<path d="M83.5966 5.59508C85.7827 7.38079 85.1998 11.7537 85.2035 14.249L85.1859 38.5496C84.9641 51.3914 85.3998 64.7582 84.0977 77.4703L84.1255 84.6737L79.5302 84.8156L69.1584 85.1472L63.9129 85.1675L61.3369 85.2063L58.1456 85.3752C57.6112 85.4152 56.8158 85.5716 56.3153 85.4461C55.9149 80.7449 54.104 76.1453 50.4359 73.031C38.8638 63.2049 22.5684 71.1886 21.4117 85.9496L15.8269 85.9456C15.8218 84.2909 16.0325 76.9989 15.5505 76.0638C15.1819 75.3481 13.5177 75.7203 12.9172 75.8722C12.7711 77.252 12.8369 78.6527 12.8157 80.0392L12.6144 83.3833C12.5956 84.1002 12.7193 84.8419 12.7417 85.5637L10.3734 85.2682C8.48464 85.0432 6.91931 84.7825 5.97871 82.9856L5.92142 76.2059C5.90111 75.5857 5.77531 74.9764 5.75379 74.3563L5.59617 65.0731C5.49644 60.6189 5.23545 56.2203 5.22514 51.8095L5.19665 27.3804C5.33517 21.3491 4.65193 15.2432 11.5814 12.7122C15.2853 11.359 19.378 10.9577 23.2541 10.3432C30.2351 9.23652 37.2012 8.15103 44.2516 7.58024L50.7885 7.1004C53.1104 6.97188 55.442 6.72119 57.7619 6.70967L61.3948 6.68542C62.3175 6.66723 63.2087 6.50597 64.1196 6.46293L69.661 6.26347C71.9918 6.22861 82.2868 6.8097 83.5966 5.59508Z" fill="#BA84F6"/>
<path d="M24.3014 24.0515L23.9079 23.9554C21.7406 23.3279 20.7076 19.1599 24.7091 19.1469L32.7738 19.1472C33.8207 19.1493 34.8944 19.1066 35.9384 19.1902C38.4346 19.3906 38.4637 23.3227 36.1912 23.8832C35.8265 23.8993 35.3779 23.9951 35.0008 24.0133L24.3014 24.0515Z" fill="#161517"/>
<path d="M36.1912 24.0078L36.3479 23.966C37.1369 24.3734 37.0114 24.1127 36.9617 25.1933L36.8371 25.2406C36.5837 25.096 36.5631 25.1109 36.27 25.1466L35.9493 25.3264L36.6325 25.5183C38.4534 26.2188 38.471 29.2964 36.5904 29.8539C35.6292 30.1388 34.2515 29.9745 33.2342 29.9748L26.75 29.9754C25.821 29.9788 24.827 30.0985 23.9079 30.0376C21.9828 29.91 21.1504 25.6977 23.7485 25.3131C23.3926 25.3191 23.0077 25.2021 22.676 25.2518L22.4196 25.1933L22.4235 24.2603L24.3014 24.0515L35.0008 24.0133C35.3779 23.9951 35.8265 23.8993 36.1912 24.0078Z" fill="#161517"/>
<path d="M36.1912 24.0078L36.3479 23.966C37.1369 24.3734 37.0114 24.1127 36.9617 25.1933L36.8371 25.2406C36.5837 25.096 36.5631 25.1109 36.27 25.1466L35.9493 25.3264L23.7485 25.2546C23.3926 25.3191 23.0077 25.2021 22.676 25.2518L22.4196 25.1933L22.4235 24.2603L24.3014 24.0515L35.0008 24.0133C35.3779 23.9951 35.8265 23.8993 36.1912 24.0078Z" fill="#BA84F6"/>
<path d="M27.383 38.9385L43.9163 38.9425C44.6171 38.944 45.4789 38.8815 46.1531 39.0634L46.5717 39.174C47.6975 39.5066 48.2358 40.8697 47.8403 41.9337L47.7936 42.0543C47.3528 43.265 46.6881 43.5769 45.4765 43.576L42.7253 43.5642L25.8025 43.6091C25.225 43.6206 24.6073 43.71 24.0356 43.6564C21.9464 43.4605 21.7906 40.8573 22.9989 39.5966C23.9231 38.6327 26.115 38.9464 27.383 38.9385Z" fill="#161517"/>
</svg>
