<svg width="152" height="92" viewBox="0 0 152 92" fill="none" xmlns="http://www.w3.org/2000/svg">
<path d="M146.337 56.7533L143.211 57.0375L139.138 58.6479L136.391 62.6264L137.244 64.9945L148.327 68.5941L149.084 62.6264L146.337 56.7533Z" fill="#AFDE2E"/>
<path d="M57.2051 0.0354773L33.167 0.0573042C32.1831 0.080948 31.2328 0.329814 30.2552 0.359823C22.0269 0.610508 13.3557 0.341333 8.39354 8.26078C4.62115 14.2811 1.1619 33.9155 0.451981 41.7609C0.217362 44.3548 0.150657 47.6273 0.0366821 50.3342L0 62.3265C0.0951812 66.0576 0.570485 71.309 2.80846 74.3132C5.07159 77.3515 9.82065 79.7789 13.5373 80.2536C14.5797 80.3866 16.059 80.0793 16.2308 80.8847C18.825 93.0224 35.5162 95.3698 42.7188 85.2188C43.3699 84.3012 43.7713 83.236 44.4142 82.3267L93.9093 83.0917L100.49 82.9114C102.55 82.7992 105.311 82.724 107.226 82.4515C107.564 82.4033 107.466 82.5573 107.581 82.8823C110.261 90.4513 120.139 93.5677 127.109 90.2406C128.927 89.3731 130.523 88.1072 131.912 86.6604C132.326 86.2297 134.787 82.9714 134.827 82.9614L134.986 82.9235C136.078 82.654 137.239 82.6392 138.358 82.5582C144.08 82.1436 149.863 80.7343 151.324 74.3436C151.656 72.8919 151.579 71.158 151.57 69.676C151.54 64.5893 150.849 61.1491 148.438 56.4816C145.742 51.2609 142.553 49.4873 137.341 46.8734L132.648 44.2738C129.343 42.2262 127.82 40.2305 125.749 36.8937L121.724 30.2428C110.539 12.3599 97.0937 4.05128 75.7443 1.39833L71.9855 1.04004C71.3838 0.975471 70.7912 0.839062 70.1871 0.79329L67.5723 0.666584C65.5217 0.469856 62.3534 0.547458 60.7523 0.157942C59.6871 -0.10123 58.3137 0.0369929 57.2051 0.0354773ZM55.3158 2.9861L64.2525 3.3932C90.7896 5.05463 105.321 9.76155 119.955 33.1125L124.14 39.7937C128.005 45.7749 130.006 46.5755 136.584 49.5015C136.998 49.6155 137.721 49.9341 137.993 50.2751C137.084 51.4879 136.013 52.3127 135.544 53.8168L135.492 53.9814C134.736 56.4974 135.697 59.4622 136.73 61.742C138.192 62.1516 138.28 63.5587 139.343 64.3232L139.344 64.3525L139.479 66.0025C139.525 66.3389 139.493 66.6712 139.468 67.0082L139.765 67.6727C139.888 67.9273 139.976 68.0813 140.206 68.261L140.324 68.3053C141.557 68.7563 147.328 69.3693 147.565 69.8255L147.264 71.3472C145.614 75.6925 141.246 75.4448 137.378 76.1805C136.749 56.3937 108.715 55.1269 105.319 72.9043C105.032 74.4078 105.034 75.9507 105.065 77.4742L82.8259 77.6597C81.5006 77.6397 80.2129 77.4424 78.8804 77.4357L63.0727 77.1835C60.4689 76.9819 57.2585 77.1732 54.9408 76.7352C53.8614 76.5312 52.6489 76.5952 51.5473 76.5388L47.8637 76.2651C47.5476 67.4662 40.7491 60.6553 31.9609 60.2352C24.4367 59.8757 16.6022 65.1207 15.1732 72.7621C14.8913 74.2681 14.8577 75.7934 14.7946 77.319L14.6967 77.3411C11.7855 77.4439 6.51781 74.1377 4.57903 72.0819L6.27197 71.366C8.13286 70.4299 9.28929 69.2192 10.0192 67.2325L9.94856 58.5638C9.91886 56.5386 8.42931 53.1121 6.43172 53.6731C6.06888 50.5616 6.65604 45.2066 6.84306 42.0234L7.245 37.6584C7.86367 31.759 8.75789 25.826 10.068 20.0399C11.2996 14.6018 12.5506 8.64696 17.4536 5.30955C18.0238 4.92155 18.691 4.61054 19.1769 4.11675L19.2348 4.05461L19.27 4.0149C21.8644 3.15645 25.009 3.40987 27.7138 3.30256C28.6456 3.26588 29.5571 3.02884 30.4868 3.00216L44.9789 2.96488C48.3809 2.96276 51.9332 2.76482 55.3158 2.9861ZM19.2348 4.05461L19.1769 4.11675C18.691 4.61054 18.0238 4.92155 17.4536 5.30955C12.5506 8.64696 11.2996 14.6018 10.068 20.0399C8.75789 25.826 7.86367 31.759 7.245 37.6584L6.84306 42.0234C6.65604 45.2066 6.06887 50.5616 6.31865 53.6992C5.70755 54.0514 3.82756 53.6686 2.8606 54.0521L2.8027 48.0071C2.8118 46.7813 2.783 45.5309 2.88425 44.309L4.00885 35.7715C4.90701 29.9215 6.06493 24.1409 7.60178 18.42C9.6027 10.9719 10.9989 5.7021 19.2348 4.05461ZM137.993 50.2751C142.583 52.9311 145.886 55.9408 147.323 61.3389C148.078 64.1767 148.739 66.7145 145.056 66.0716C143.26 65.7581 140.944 65.2571 139.344 64.3525L139.343 64.3232C138.28 63.5587 138.192 62.1516 136.73 61.742C135.697 59.4622 134.736 56.4974 135.492 53.9814L135.544 53.8168C136.013 52.3127 137.084 51.4879 137.993 50.2751ZM29.5356 73.817C33.0512 75.0862 30.5353 80.4997 28.1946 78.811L27.2985 78.179C27.7096 79.6846 28.4156 80.1666 29.5368 81.2357L30.3477 81.8535C25.1621 81.5476 25.284 75.5891 27.9293 74.1783L28.0115 74.1317C28.4883 73.8692 28.9975 73.7761 29.5356 73.817ZM119.829 74.0086C124.048 75.5451 119.971 82.3533 117.708 77.5291C117.588 78.9223 117.733 79.7655 118.85 80.6307C119.229 80.8235 121.398 81.3985 119.767 81.5691C116.305 81.9317 115.321 73.7794 119.707 74.0013L119.829 74.0086ZM124.366 64.6514C126.985 64.9473 129.09 66.6996 130.682 68.6991C133.55 72.3026 132.009 73.8695 131.531 72.6703L131.32 71.881C130.418 69.5157 128.376 67.4611 126.072 66.4229C124.66 65.7869 123.284 65.9658 121.827 65.5778C122.629 64.7981 123.126 64.4323 124.366 64.6514ZM19.9274 77.5106C20.5731 82.0638 22.4988 82.7744 23.2845 85.9766L23.1927 86.0417C22.982 85.9263 22.7953 85.812 22.6025 85.6665C20.9423 84.0857 19.0362 81.7131 18.9835 79.3033L18.9787 78.7934C19.0411 78.2657 19.5528 77.8389 19.9274 77.5106ZM110.83 77.8301L110.864 77.9717C111.093 78.9304 111.174 79.8334 111.506 80.7831C112.101 82.4876 113.115 84.0187 113.789 85.698L112.94 85.1363C111.354 83.6343 109.836 81.4782 109.768 79.1981C109.747 78.5142 109.768 77.6782 110.707 77.7937L110.83 77.8301Z" fill="#161517"/>
<path d="M34.7321 64.3446C33.6247 64.2943 33.2149 64.4786 33.047 65.6102C33.431 66.2219 38.2926 65.0443 41.6915 72.8852C42.0037 73.4026 42.2565 73.4742 42.8485 73.3923L42.8795 73.2977C42.9316 73.0192 42.7928 72.6575 42.7173 72.3832C41.6572 68.5193 38.6236 65.431 34.7321 64.3446Z" fill="white"/>
<path d="M6.49537 56.4219C5.47656 56.2048 3.9003 56.4461 2.88847 56.6838C2.56624 60.4137 2.59354 65.6047 3.58961 69.1152L3.7739 69.3377C4.85697 69.3917 5.66147 69.0573 6.43535 68.2777L6.55598 68.1552C7.67511 67.0812 7.14132 58.2003 6.77879 56.5795L6.49537 56.4219Z" fill="#AFDE2E"/>
<path d="M55.3158 2.9861C51.9332 2.76482 48.3809 2.96276 44.9789 2.96488L30.4868 3.00216C29.5571 3.02884 28.6456 3.26588 27.7138 3.30256C25.009 3.40987 21.8644 3.15645 19.27 4.0149L19.2348 4.05461L19.1769 4.11675C18.691 4.61054 18.0238 4.92155 17.4536 5.30955C12.5506 8.64696 11.2996 14.6018 10.068 20.0399C8.75789 25.826 7.86367 31.759 7.245 37.6584L6.84306 42.0234C6.65604 45.2066 6.06888 50.5616 6.43172 53.6731C8.42931 53.1121 9.91886 56.5386 9.94856 58.5638L10.0192 67.2325C9.28929 69.2192 8.13286 70.4299 6.27197 71.366L4.57903 72.0819C6.51781 74.1377 11.7855 77.4439 14.6967 77.3411L14.7946 77.319C14.8577 75.7934 14.8913 74.2681 15.1732 72.7621C16.6022 65.1207 24.4367 59.8757 31.9609 60.2352C40.7491 60.6553 47.5476 67.4662 47.8637 76.2651L51.5473 76.5388C52.6489 76.5952 53.8614 76.5312 54.9408 76.7352C57.2585 77.1732 60.4689 76.9819 63.0727 77.1835L78.8804 77.4357C80.2129 77.4424 81.5006 77.6397 82.8259 77.6597L105.065 77.4742C105.034 75.9507 105.032 74.4078 105.319 72.9043C108.715 55.1269 136.749 56.3937 137.378 76.1805C141.246 75.4448 145.614 75.6925 147.264 71.3472L147.565 69.8255C146.605 67.9764 141.196 70.6271 140.206 68.261C139.976 68.0813 139.888 67.9273 139.765 67.6727L139.468 67.0082C139.493 66.6712 139.525 66.3389 139.479 66.0025L139.328 64.7104L139.233 64.5209C138.17 63.7564 137.19 63.1306 135.728 62.7211C134.695 60.4413 139.33 60.6902 140.085 58.1742L145.011 56.5639C145.388 55.3553 139.043 50.1225 136.865 49.5631C130.287 46.637 128.005 45.7749 124.14 39.7937L119.955 33.1125C105.321 9.76155 90.7896 5.05463 64.2525 3.3932L55.3158 2.9861ZM114.299 48.4182L100.584 47.8649C98.1073 47.6509 95.364 47.4203 92.896 47.3227L89.6786 47.132C87.0423 47.065 83.3088 47.5373 81.0565 45.9001L80.8919 45.8995C78.5927 45.8407 77.169 43.7661 76.3093 41.907C75.82 40.8491 76.0544 36.8894 76.0528 35.5848L76.0622 20.8344C76.0656 19.668 76.0201 18.4733 76.122 17.3121C76.5315 12.6345 81.5503 11.9804 85.246 12.3581C95.9442 13.4515 102.5 19.0587 109.183 26.7387C111.998 29.9736 115.051 33.3886 116.444 37.532C117.375 40.3023 117.419 43.0653 117.421 45.948C117.422 47.3748 117.749 49.1669 116.167 49.8125L116.064 49.8571C115.243 50.1811 114.516 49.6892 114.353 48.8774L114.299 48.4182ZM55.3158 2.9861L64.2525 3.3932C90.7896 5.05463 105.321 9.76155 119.955 33.1125L124.14 39.7937C128.005 45.7749 130.287 46.637 136.865 49.5631C135.354 49.1752 135.355 49.2055 134.544 49.0168C127.914 47.4724 126.928 48.7789 123.272 42.951L114.394 30.0297L108.728 23.3039C98.8557 11.9137 89.8641 8.21347 75.0801 5.80423L65.9451 4.64629C64.2131 4.45108 55.3488 3.73419 54.5946 3.19068L55.3158 2.9861ZM140.206 68.261C141.196 70.6271 146.605 67.9764 147.565 69.8255L147.264 71.3472C144.91 71.3575 139.913 71.5051 139.176 68.4459L140.206 68.261Z" fill="#BA84F6"/>
<path d="M10.0192 67.2325L10.1863 69.3701C10.8241 69.2255 11.2948 69.077 11.6995 68.5329L11.9326 68.2192C12.296 67.6663 12.2281 66.4832 12.2309 65.8336C12.243 63.2128 12.3579 59.4164 10.5036 57.3061L10.2211 57.6416C9.99379 57.9381 9.96918 58.1937 9.94856 58.5638L10.0192 67.2325Z" fill="#BA84F6"/>
<path d="M86.2133 53.2002L82.1484 53.1766C78.5791 53.1699 79.4424 55.9123 81.1654 56.22C82.8134 56.5146 84.654 56.397 86.3321 56.4137C88.2103 56.4158 95.2767 57.5637 92.2958 53.4418C91.5325 52.9826 87.3282 53.2021 86.2133 53.2002Z" fill="#161517"/>
<path d="M34.6757 48.3333L22.6722 48.3927C21.4173 48.4106 20.3858 51.2587 22.6595 51.4885L30.4816 51.6185C31.8184 51.6213 33.3577 51.7725 34.6745 51.5737C36.2374 51.3376 35.8664 48.945 34.6757 48.3333Z" fill="#161517"/>
<path d="M55.1242 48.256L42.8537 48.4188C41.4602 49.3387 41.7603 51.1011 43.2959 51.5273C45.082 51.7871 47.0732 51.6097 48.8798 51.6161L53.2251 51.6322C55.1885 51.6367 57.4737 51.6119 55.9732 48.6058C55.7038 48.4257 55.4328 48.3481 55.1242 48.256Z" fill="#161517"/>
<path d="M114.299 48.4182L114.353 48.8774C114.516 49.6892 115.243 50.1811 116.064 49.8571L116.167 49.8125C117.749 49.1669 117.422 47.3748 117.421 45.948C117.419 43.0653 117.375 40.3023 116.444 37.532C115.051 33.3886 111.998 29.9736 109.183 26.7387C102.5 19.0587 95.9442 13.4515 85.246 12.3581C81.5503 11.9804 76.5315 12.6345 76.122 17.3121C76.0201 18.4733 76.0656 19.668 76.0622 20.8344L76.0528 35.5848C76.0544 36.8894 75.82 40.8491 76.3093 41.907C77.169 43.7661 78.5927 45.8407 80.8919 45.8995L81.0565 45.9001C83.3088 47.5373 87.0423 47.065 89.6786 47.132L92.896 47.3227C95.364 47.4203 98.1073 47.6509 100.584 47.8649L114.299 48.4182ZM114.299 48.4182L100.584 47.8649C98.1073 47.6509 95.364 47.4203 92.896 47.3227L89.6786 47.132C87.0423 47.065 83.3088 47.5373 81.0565 45.874C82.4567 45.7264 83.895 45.7919 85.3021 45.7913L114.337 45.7982L114.299 48.4182ZM102.724 33.4505C102.394 35.0782 101.506 34.4547 101.51 32.9157C101.77 32.8299 102.033 32.7066 102.123 32.4086L102.147 32.2192C102.284 32.7032 102.432 33.0412 102.724 33.4505Z" fill="#161517"/>
<path d="M84.8077 15.2063C82.8865 15.0783 80.3208 14.9331 79.1905 16.8916L79.129 17.005C78.59 17.9823 78.8331 19.2139 78.8307 20.2836L78.8161 34.9985C78.8156 36.3612 78.1064 41.8852 79.9438 42.3538C81.5112 42.8667 83.3221 42.6915 84.9544 42.7036C86.186 42.7128 93.8589 42.3538 111.057 42.4584L114.405 42.456C114.379 41.5742 114.43 40.5818 114.191 39.73L114.142 39.5605C112.91 35.1867 109.915 31.317 107.014 27.8981C101.232 21.0835 93.9727 15.9595 84.8077 15.2063Z" fill="white"/>
<path d="M146.527 57.7953C137.812 58.3637 136.675 63.1 139.801 64.6156L140.37 68.31C128.624 63.4789 140.085 55.0483 145.201 56.0902L146.527 57.7953Z" fill="#161517"/>
<path d="M43.4887 12.1902L23.8165 12.3572C22.4625 12.3172 20.3642 11.8692 19.0765 12.3787L18.9774 12.419C14.035 14.2244 14.2969 22.9187 14.3042 27.0797C14.3135 32.4868 14.3429 40.4523 21.6428 40.4611L35.3859 40.4544L46.8522 40.503C48.2229 40.5393 49.5488 40.7545 50.9071 40.8428L55.7353 40.9807C57.0008 40.9967 58.2358 41.151 59.4258 40.6572L59.7602 40.5181C63.1715 38.9861 63.7875 35.612 64.1252 32.3134L64.488 24.8599C64.5135 16.2887 63.9651 12.4175 54.9378 12.392L43.4887 12.1902Z" fill="#161517"/>
<path d="M40.5669 15.2123C40.1265 15.1144 39.4547 15.2026 38.9828 15.202L21.4521 15.2244C18.209 15.232 17.9183 17.0092 17.3991 19.952C16.8495 23.0672 16.7467 30.7323 17.4591 33.9379C18.1723 37.1477 19.1866 37.5126 21.9947 37.5123L38.4559 37.5005L56.1293 38.3668C61.943 38.3689 61.3846 31.6338 61.4371 27.3397L61.5586 24.0051C61.678 14.506 60.1988 15.5761 52.5109 15.4269L40.5669 15.2123Z" fill="white"/>
<path d="M17.7934 77.1195C17.9354 81.0519 21.5842 86.436 25.8808 87.6777C35.2118 90.3745 45.9272 82.0752 42.6118 71.6553C38.6333 65.4033 32.9497 60.0687 20.9194 67.6468C17.1304 70.2992 17.8902 74.6458 17.7934 77.1195Z" fill="white"/>
<path d="M133.598 78.2469C134.477 74.4171 132.345 68.2796 128.518 65.9703C120.205 60.9548 107.713 66.1878 108.221 77.0964C110.447 84.1563 114.556 90.7725 128.131 86.5753C132.475 84.9972 132.865 80.6079 133.598 78.2469Z" fill="white"/>
<path d="M30.9967 69.6595C21.7159 68.7471 17.3924 80.8593 27.7938 83.3337C35.78 85.1328 39.9476 78.1609 35.117 71.868C34.0234 70.4434 32.742 69.8762 30.9967 69.6595Z" fill="#AFDE2E"/>
<path fill-rule="evenodd" clip-rule="evenodd" d="M24.9243 76.0758C25.4541 74.2603 27.4933 72.3775 30.6621 72.6725C31.7805 72.8163 32.2324 73.0884 32.7126 73.7139C34.5437 76.0992 34.3096 78.0366 33.6892 79.0321C33.0912 79.9915 31.5144 81.0592 28.4775 80.3805C26.482 79.9021 25.5744 79.067 25.1762 78.4258C24.7728 77.7763 24.6644 76.966 24.9243 76.0758ZM27.7938 83.3337C17.3924 80.8593 21.7159 68.7471 30.9967 69.6595C32.742 69.8762 34.0234 70.4434 35.117 71.868C39.9476 78.1609 35.78 85.1328 27.7938 83.3337Z" fill="black"/>
<path d="M121.559 69.6595C112.278 68.7471 107.955 80.8593 118.356 83.3337C126.342 85.1328 130.51 78.1609 125.679 71.868C124.586 70.4434 123.304 69.8762 121.559 69.6595Z" fill="#AFDE2E"/>
<path fill-rule="evenodd" clip-rule="evenodd" d="M115.486 76.0758C116.016 74.2603 118.056 72.3775 121.224 72.6725C122.343 72.8163 122.795 73.0884 123.275 73.7139C125.106 76.0992 124.872 78.0366 124.251 79.0321C123.653 79.9915 122.077 81.0592 119.04 80.3805C117.044 79.9021 116.137 79.067 115.738 78.4258C115.335 77.7763 115.227 76.966 115.486 76.0758ZM118.356 83.3337C107.955 80.8593 112.278 68.7471 121.559 69.6595C123.304 69.8762 124.586 70.4434 125.679 71.868C130.51 78.1609 126.342 85.1328 118.356 83.3337Z" fill="black"/>
</svg>
