<svg width="158" height="158" viewBox="0 0 158 158" fill="none" xmlns="http://www.w3.org/2000/svg">
<path d="M150.1 78.9999C150.1 93.6696 145.657 107.302 138.044 118.624C125.278 137.609 103.598 150.1 78.9999 150.1C54.4022 150.1 32.7219 137.609 19.956 118.624C12.3426 107.302 7.8999 93.6696 7.8999 78.9999C7.8999 39.7325 39.7325 7.8999 78.9999 7.8999C118.267 7.8999 150.1 39.7325 150.1 78.9999Z" fill="#E6D8F6"/>
<path fill-rule="evenodd" clip-rule="evenodd" d="M79 15.8C44.0956 15.8 15.8 44.0956 15.8 79C15.8 92.0509 19.7473 104.156 26.5118 114.216C37.8726 131.111 57.1428 142.2 79 142.2C100.857 142.2 120.127 131.111 131.488 114.216C138.253 104.156 142.2 92.0509 142.2 79C142.2 44.0956 113.904 15.8 79 15.8ZM0 79C0 35.3695 35.3695 0 79 0C122.631 0 158 35.3695 158 79C158 95.2886 153.062 110.448 144.6 123.032C130.429 144.107 106.338 158 79 158C51.6617 158 27.5713 144.107 13.4004 123.032C4.9382 110.448 0 95.2886 0 79Z" fill="#E6D8F6"/>
<path d="M94.7998 55.2999C94.7998 64.026 87.7259 71.0999 78.9998 71.0999C70.2737 71.0999 63.1998 64.026 63.1998 55.2999C63.1998 46.5738 70.2737 39.4999 78.9998 39.4999C87.7259 39.4999 94.7998 46.5738 94.7998 55.2999Z" fill="#BA84F6"/>
<path fill-rule="evenodd" clip-rule="evenodd" d="M78.9999 47.3999C74.6369 47.3999 71.0999 50.9369 71.0999 55.2999C71.0999 59.663 74.6369 63.1999 78.9999 63.1999C83.363 63.1999 86.8999 59.663 86.8999 55.2999C86.8999 50.9369 83.363 47.3999 78.9999 47.3999ZM55.2999 55.2999C55.2999 42.2108 65.9108 31.5999 78.9999 31.5999C92.0891 31.5999 102.7 42.2108 102.7 55.2999C102.7 68.3891 92.0891 78.9999 78.9999 78.9999C65.9108 78.9999 55.2999 68.3891 55.2999 55.2999Z" fill="#BA84F6"/>
<path d="M102.7 102.7H55.2999C40.987 102.7 28.8967 112.215 25.0101 125.266C38.05 140.468 57.4001 150.1 78.9999 150.1C100.6 150.1 119.95 140.468 132.99 125.266C129.103 112.215 117.013 102.7 102.7 102.7Z" fill="#8F42E3"/>
<path fill-rule="evenodd" clip-rule="evenodd" d="M17.4388 123.011C22.2953 106.704 37.3971 94.7997 55.2999 94.7997H102.7C120.603 94.7997 135.704 106.704 140.561 123.011L141.79 127.139L138.986 130.409C124.509 147.287 103.001 158 78.9999 158C54.9983 158 33.4904 147.287 19.0137 130.409L16.2092 127.139L17.4388 123.011ZM34.1705 123.549C45.6264 135.077 61.4778 142.2 78.9999 142.2C96.5219 142.2 112.373 135.077 123.829 123.549C119.908 115.859 111.911 110.6 102.7 110.6H55.2999C46.0892 110.6 38.0915 115.859 34.1705 123.549Z" fill="#8F42E3"/>
</svg>
