<svg width="150" height="101" viewBox="0 0 150 101" fill="none" xmlns="http://www.w3.org/2000/svg">
<path d="M115.291 67.2867C110.383 67.0878 107.053 67.1269 102.835 70.5817L102.807 70.5759C99.863 73.379 97.6772 76.9706 96.873 80.9279L96.615 82.3723C96.5702 82.6336 96.6447 83.0425 96.3107 83.0877L95.6763 83.0713L55.6371 83.3053C53.3442 83.3074 51.8717 83.2198 49.6425 83.0783C48.3278 88.4242 51.6349 86.9844 55.4249 86.9771L96.8318 86.9313C97.2986 87.3163 98.1103 93.8204 103.718 97.7153C106.585 99.7065 111.843 100.723 115.378 100.021C119.941 99.1157 124.078 95.4037 126.502 91.5621C132.899 81.4238 126.665 69.7508 115.291 67.2867ZM114.322 70.9469C120.32 71.6029 126.179 77.6236 125.489 83.7352C124.681 90.8925 118.943 96.8438 111.501 96.3885C99.6093 95.3424 96.7557 80.3702 105.201 73.5562C108.055 71.254 110.799 70.7693 114.322 70.9469Z" fill="#161517"/>
<path d="M113.439 76.2625C108.721 76.1155 103.82 80.8506 105.402 85.6857L105.588 86.2626C106.616 89.1238 109.023 90.6609 111.911 91.005C112.795 91.0207 113.733 90.9204 114.584 90.6752L115.351 90.4284C122.817 87.4154 121.457 76.9724 113.439 76.2625ZM116.432 82.0737C117.2 82.9227 116.614 84.5014 116.099 85.3338C115.617 85.2429 115.074 85.3235 114.61 85.1546C113.664 84.2498 114.865 81.877 113 80.3789L112.324 79.819C112.885 79.8303 113.452 79.8066 113.991 79.9748L114.111 80.0103C115.193 80.3434 115.894 81.1231 116.432 82.0737Z" fill="#161517"/>
<path d="M116.099 85.3338C116.614 84.5014 117.2 82.9227 116.432 82.0737C116.453 82.743 116.537 83.362 116.203 83.964L116.123 84.115C115.929 84.4711 115.665 84.9092 115.304 85.1159L114.625 85.1547C115.074 85.3235 115.617 85.2429 116.099 85.3338Z" fill="#AFDE2E"/>
<path d="M112.324 79.819C108.777 79.7605 107.964 84.4048 110.14 86.5691C111.867 88.2866 115.061 87.3899 116.099 85.3338C115.617 85.2429 115.074 85.3235 114.625 85.1547C113.664 84.2499 114.865 81.877 113 80.3789L112.324 79.819Z" fill="#AFDE2E"/>
<path d="M130.506 85.1599C129.941 86.2323 129.81 87.5161 129.514 88.6843C130.519 89.3112 131.905 89.1217 133.027 89.1196C140.005 89.106 147.349 88.992 149.394 80.74C152.104 69.8054 145.311 55.8595 139.469 46.4445L134.425 39.0782C128.696 31.2236 122.054 23.4621 113.328 18.8543L111.344 17.9146C109.785 17.225 110.026 16.6076 109.526 15.0935C106.404 5.63565 99.0622 2.89177 89.8929 1.74353L83.8174 1.22094C83.1727 1.16638 82.5706 0.972986 81.9126 0.944796L72.5542 0.875379C71.2729 0.828395 70.0013 0.597718 68.7181 0.53194L60.2379 0.473739C59.2488 0.451611 58.2791 0.241849 57.2985 0.224874L21.0548 0.00147085C17.1238 -0.0294479 12.3208 0.413113 8.98098 2.66078C1.75752 7.5223 1.48047 20.403 0.872705 28.3573L0.50107 34.1458C0.45348 34.8257 0.317987 35.5029 0.282219 36.18L0.236132 40.1677C0.198847 40.9176 0.0336469 41.6633 0 42.4035L0.0382051 67.3604C0.548365 76.4026 1.38559 84.9213 11.8589 86.8165L12.0041 86.8416C13.3205 87.0826 14.6619 86.9741 15.9832 87.2023C16.5467 95.7168 24.1281 100.315 32.0303 100.175C40.4414 100.025 46.6012 92.2057 47.7622 84.3199L47.8113 83.9771C48.7758 75.9413 41.4108 68.2625 33.766 67.4719C28.1785 66.8466 25.2333 68.5911 21.0387 71.5241C18.2427 72.3213 15.4612 77.5545 14.8161 80.0735C14.139 82.7167 14.8177 82.2356 11.6785 81.5085C7.98249 80.1271 6.9455 78.2338 6.18011 74.3265C5.27316 69.6963 5.84578 65.8727 5.30106 61.5434C5.11555 60.8068 5.21951 59.8211 5.21799 59.0611L5.50506 42.031C5.53234 40.7312 5.74816 39.4553 5.79181 38.1552L5.84152 32.8584C5.87759 30.8172 6.12616 28.4552 6.3244 26.3985L7.18771 17.9877C7.633 14.3405 8.09828 9.60477 11.2135 7.20281C14.1826 4.9133 17.6119 5.42892 21.1142 5.43438C24.324 5.43953 27.0336 5.47803 30.2134 5.67779L35.0194 5.94787C35.4808 5.98303 35.9343 6.09186 36.3962 6.13308L39.7115 6.281L50.882 7.05276C51.4758 7.09641 52.0544 7.23858 52.6495 7.28556L65.9036 8.39651C66.7239 8.49352 67.5672 8.46502 68.3923 8.54384L80.5567 9.88334C84.9183 10.3383 89.3297 10.3856 93.7059 10.6809L96.5474 10.8161C99.4444 11.0637 102.741 11.5193 104.101 14.4514C104.484 15.2759 104.489 15.285 105.258 15.7913C95.5817 15.4675 87.0411 11.5445 83.6173 23.9026C81.7825 30.5252 81.0132 37.6284 81.9708 44.4541C83.0954 52.47 86.4137 53.4973 93.6111 55.677C101.392 58.0332 111.615 60.584 119.818 60.7902L123.444 60.8614C124.185 60.9056 124.915 61.0678 125.658 61.0981L136.179 61.1087C137.565 61.0393 138.993 60.7932 140.382 60.655L141.953 64.4504C142.412 65.5313 143.042 66.7011 143.029 67.8915L138.458 67.9403C137.669 67.9439 136.761 67.8639 135.992 68.0533C132.701 68.8642 132.383 72.9855 134.901 75.0073C136.193 76.0446 138.298 76.2883 139.893 76.452L145.437 76.7561C144.894 77.9304 142.973 82.9377 142.644 84.1465C140.345 85.453 133.049 85.3036 130.506 85.1599ZM97.6848 18.6731C100.17 18.8446 102.782 19.1471 105.2 19.7643C120.003 23.5431 129.862 37.9882 137.445 50.2826L139.861 54.3903C140.257 55.1281 140.703 55.9311 140.96 56.7292C136.851 58.2188 132.457 57.6937 128.162 57.691C126.9 57.668 125.676 57.5009 124.421 57.4273L120.703 57.3215C120.198 57.2912 119.731 57.1417 119.235 57.0796L111.704 56.136C105.457 55.0938 96.4259 53.1062 90.4889 50.6615C87.2145 49.3135 86.4537 48.3526 85.7435 44.8664C85.0829 41.626 85.0069 38.3159 85.1669 35.0148L85.8489 29.9469C86.3982 26.835 87.5276 20.7289 90.4376 19.3793L90.5322 19.3339C91.0427 19.0899 91.632 18.894 92.1903 18.8049L92.3543 18.7773C94.02 18.5094 95.9936 18.5494 97.6848 18.6731ZM32.8269 71.0485C39.5481 71.6144 44.7406 77.4817 44.081 84.259C43.8458 86.6728 42.4639 89.4409 41.0268 91.3679C38.0701 95.3319 34.9512 96.4477 30.2879 96.3925C29.2361 96.3052 28.1182 96.1982 27.113 95.8532C20.9929 93.7523 17.7468 86.2778 19.7231 80.4124C21.5849 74.8858 26.6699 70.0764 32.8269 71.0485ZM105.258 15.7913C104.489 15.285 104.484 15.2759 104.101 14.4514C102.741 11.5193 99.4444 11.0637 96.5474 10.8161L93.7059 10.6809C89.3297 10.3856 84.9183 10.3383 80.5567 9.88334L68.3923 8.54384C67.5672 8.46502 66.7239 8.49352 65.9036 8.39651L52.6495 7.28556C52.0544 7.23858 51.4758 7.09641 50.882 7.05276L39.7115 6.281L36.3962 6.13308C35.9343 6.09186 35.4808 5.98303 35.0194 5.94787L30.2134 5.67779C27.0336 5.47803 24.324 5.43953 21.1142 5.43438C17.6119 5.42892 14.1826 4.9133 11.2135 7.20281C8.09828 9.60477 7.633 14.3405 7.18771 17.9877L6.3244 26.3985C6.12616 28.4552 5.87759 30.8172 5.84152 32.8584L5.79181 38.1552C5.74816 39.4553 5.53234 40.7312 5.50506 42.031L5.21799 59.0611C5.21951 59.8211 5.11555 60.8068 5.30106 61.5434C5.84578 65.8727 5.27316 69.6963 6.18011 74.3265C6.9455 78.2338 7.98249 80.1271 11.6785 81.5085C14.8177 82.2356 14.139 82.7167 14.8161 80.0735C15.4612 77.5545 18.2427 72.3213 21.0387 71.5241C18.5043 74.0422 15.7049 80.0677 15.4024 83.4409L12.0717 82.9995C3.57961 81.0216 4.18615 72.8597 3.8809 65.7581L3.71419 47.1795L4.42775 29.3785L5.38078 20.2469C5.8097 16.9795 6.18527 12.9119 7.5172 9.90032C9.77093 4.80448 14.2184 3.90117 19.2321 3.6802L40.6336 3.66655C41.7388 3.68595 42.8025 3.91421 43.9067 3.92118L59.6195 3.95392C60.5983 3.96756 61.525 4.1849 62.4922 4.21521L81.2569 4.65171C82.3463 4.69324 83.4088 4.85753 84.4903 4.95908L87.4537 5.17612C95.5905 6.03608 102.806 7.26525 105.956 15.7715C105.901 16.0322 105.495 15.8358 105.258 15.7913ZM143.029 67.8915C143.042 66.7011 142.412 65.5313 141.953 64.4504L140.382 60.655C141.033 60.4892 141.796 60.4073 142.4 60.1212L144.388 65.3952C144.67 66.1925 144.804 67.2422 145.247 67.9454L143.029 67.8915ZM142.644 84.1465C142.973 82.9377 144.894 77.9304 145.437 76.8379L146.045 76.8367C146.938 78.0437 144.606 82.7713 143.294 83.7146L142.644 84.1465Z" fill="#161517"/>
<path d="M146.182 72.6057C146.252 70.6217 146.207 69.3701 143.904 70.1491C144.015 70.4877 145.372 72.3495 145.883 72.5323L146.182 72.6057Z" fill="#AFDE2E"/>
<path d="M143.904 70.063L141.444 70.1561C142.115 71.0903 143.873 71.1543 144.527 72.6271L144.585 72.7857C145.047 73.0097 145.672 72.9478 146.176 72.8987L146.182 72.6057L145.883 72.5323C145.372 72.3495 144.015 70.4877 143.904 70.063Z" fill="#AFDE2E"/>
<path d="M141.444 70.1561L137.92 70.2294C136.525 70.314 135.486 71.0385 136.866 72.3419C137.673 73.1033 144.233 73.2073 146.064 72.9863L146.176 72.9636C145.672 72.9478 145.047 73.0097 144.585 72.7857L144.527 72.6271C143.873 71.1543 142.115 71.0903 141.444 70.1561Z" fill="#AFDE2E"/>
<path d="M32.9166 76.4492C22.2036 75.5659 21.0066 89.0395 30.2022 90.978C40.2774 91.831 42.379 78.3414 32.9166 76.4492Z" fill="#161517"/>
<path d="M34.8636 85.3123C36.7639 82.4487 34.1249 79.5069 30.926 79.9746L30.7599 80.0016C30.0121 80.1171 29.5877 80.4311 29.0545 80.9334C24.8235 85.3584 32.5613 90.263 34.8636 85.3123Z" fill="#AFDE2E"/>
<path d="M32.0803 85.1129C33.5762 84.1505 32.682 80.6615 30.6132 81.3778L30.591 81.493C30.0927 83.3132 29.9051 83.2829 31.4698 85.0416C31.6686 85.0571 31.8908 85.0511 32.0803 85.1129Z" fill="#AFDE2E"/>
<path d="M29.0545 80.9334C24.8235 85.3584 32.5613 90.263 34.8636 85.3123L34.127 85.5112C33.6499 85.6797 32.2225 86.1016 31.8597 85.5515L32.0803 85.1129C31.8908 85.0511 31.6686 85.0571 31.4698 85.0416C29.9051 83.2829 30.0927 83.3132 30.591 81.493L30.6132 81.3778C29.7408 81.7337 29.6159 82.4338 29.0485 83.0155C28.9345 82.288 28.966 81.663 29.0545 80.9334Z" fill="#AFDE2E"/>
<path d="M105.258 15.7879C104.489 15.285 104.484 15.2759 104.101 14.4514C102.741 11.5193 99.4444 11.0637 96.5474 10.8161L93.7059 10.6809C89.3297 10.3856 84.9183 10.3383 80.5567 9.88334L68.3923 8.54384C67.5672 8.46502 66.7239 8.49352 65.9036 8.39651L52.6495 7.28556C52.0544 7.23858 51.4758 7.09641 50.882 7.05276L39.7115 6.281L36.3962 6.13308C35.9343 6.09186 35.4808 5.98303 35.0194 5.94787L30.2134 5.67779C27.0336 5.47803 24.324 5.43953 21.1142 5.43438C17.6119 5.42892 14.1826 4.9133 11.2135 7.20281C8.09828 9.60477 7.633 14.3405 7.18771 17.9877L6.3244 26.3985C6.12616 28.4552 5.87759 30.8172 5.84152 32.8584L5.79181 38.1552C5.74816 39.4553 5.53234 40.7312 5.50506 42.031L5.21799 59.0611C5.21951 59.8211 5.11552 60.8068 5.27041 61.5434C5.84574 65.8726 5.27316 69.6963 6.18011 74.3265C6.9455 78.2338 7.98249 80.1271 11.6785 81.5085C14.8177 82.2356 14.139 82.7167 14.8161 80.0735C15.4612 77.5545 18.2427 72.3213 21.0387 71.5241C25.2333 68.5911 28.1785 66.8466 33.766 67.4719L33.796 67.3519C42.9913 66.8917 49.1884 73.2343 49.6504 82.3111L49.6425 83.0689C51.8717 83.2198 53.3442 83.3074 55.6371 83.3053L95.6762 83.2468H96.615C97.1448 83.1752 91.3376 74.3265 102.807 70.5759L102.835 70.5817C107.053 67.1269 110.383 67.0878 115.291 67.2867C118.398 66.8811 123.041 68.4998 125.399 70.3188C129.861 73.7611 131.348 79.77 130.529 85.1499C133.049 85.3035 140.345 85.453 142.644 84.1465C144.423 83.1359 146.753 81.3361 146.374 76.6945L139.893 76.452C138.298 76.2883 136.193 76.0446 134.901 75.0073C132.383 72.9855 132.701 68.8642 135.992 68.0533C136.761 67.8639 137.669 67.9439 138.458 67.9403L145.521 67.9402C144.479 65.3273 143.342 62.9591 142.395 60.0226C140.501 60.6857 137.565 61.0393 136.179 61.1087L125.658 61.0981C124.915 61.0678 124.185 60.9056 123.444 60.8614L119.818 60.7902C111.615 60.584 101.392 58.0332 93.6111 55.677C86.4137 53.4973 83.0954 52.47 81.9708 44.4541C81.0132 37.6284 81.7825 30.5252 83.6173 23.9026C87.0411 11.5445 95.5817 15.4675 105.258 15.7879ZM96.615 83.2468C97.1448 83.1752 91.3376 74.3265 102.807 70.5759C97.6843 75.5578 96.7493 81.6203 96.615 83.2468Z" fill="#BA84F6"/>
<path d="M87.15 62.7583C87.641 60.7174 86.7541 59.7383 84.6555 59.728L82.0575 59.7261L79.0829 59.9298C78.526 61.1454 78.038 62.7068 79.4021 63.5207L79.5033 63.5834C80.1693 63.9705 85.0075 63.9844 85.7895 63.7356C86.4134 63.5373 86.641 63.0072 87.15 62.7583Z" fill="#161517"/>
<path d="M11.6785 81.5085C11.9095 80.2547 10.9198 77.9079 10.6921 76.5017L9.55147 65.9047C9.38657 64.3064 8.37745 57.9698 5.91517 61.2015L5.32135 61.5434C5.84576 65.8726 5.27316 69.6963 6.18011 74.3265C6.9455 78.2338 7.98249 80.1271 11.6785 81.5085Z" fill="#BA84F6"/>
<path d="M65.2889 51.3211L46.4969 51.3299C46.0292 51.3305 45.2984 51.2526 44.8592 51.3966C42.7785 52.0777 42.9516 54.4533 44.7985 55.216C45.8279 55.4718 46.9628 55.3863 48.015 55.386L59.9899 55.3772C61.4025 55.3748 62.836 55.4175 64.2458 55.3308C66.7366 55.1781 67.7918 52.2914 65.2889 51.3211Z" fill="#161517"/>
<path d="M63.6135 37.2331L31.2401 37.2697C29.7381 37.2734 28.2034 37.2124 26.7096 37.3649C24.9014 38.5471 25.37 40.8418 27.4683 41.0779L60.0336 41.0858C61.2622 41.0852 62.598 41.2001 63.8105 41.0264C66.188 40.686 67.0555 37.5171 63.6135 37.2331Z" fill="#161517"/>
<path d="M64.729 24.4527C63.3122 24.2445 61.6608 24.4127 60.2224 24.4133L34.953 24.4051C32.4465 24.4033 29.8572 24.2602 27.364 24.4121C25.1845 24.5445 25.3091 26.8344 26.5028 28.0666C26.7693 28.2163 26.9475 28.2848 27.2537 28.2936L58.8196 28.2818C61.0018 28.28 63.966 28.9532 65.4019 26.8744C65.8481 26.2281 65.3583 24.838 64.729 24.4527Z" fill="#161517"/>
</svg>
