<svg width="25" height="24" viewBox="0 0 25 24" fill="none" xmlns="http://www.w3.org/2000/svg">
<path d="M12.5 20L15.5 22V14.4584C14.9488 14.4828 14.4277 14.7345 14.0653 15.1604L14.0232 15.2099C13.2246 16.1484 11.7754 16.1484 10.9768 15.2099L10.9347 15.1604C10.5723 14.7345 10.0512 14.4828 9.5 14.4584V22L12.5 20Z" fill="#828589"/>
<path d="M15.5 22L14.9453 22.8321C15.2522 23.0366 15.6467 23.0557 15.9719 22.8817C16.297 22.7077 16.5 22.3688 16.5 22H15.5ZM12.5 20L13.0547 19.168C12.7188 18.944 12.2812 18.944 11.9453 19.168L12.5 20ZM9.5 22H8.5C8.5 22.3688 8.70298 22.7077 9.02814 22.8817C9.3533 23.0557 9.74784 23.0366 10.0547 22.8321L9.5 22ZM14.0653 15.1604L13.3037 14.5123L13.3037 14.5123L14.0653 15.1604ZM14.0232 15.2099L14.7848 15.8579L14.7848 15.8579L14.0232 15.2099ZM10.9768 15.2099L10.2152 15.8579L10.2152 15.8579L10.9768 15.2099ZM10.9347 15.1604L11.6963 14.5123L11.6963 14.5123L10.9347 15.1604ZM9.5 14.4584L9.5442 13.4594L8.5 13.4132V14.4584H9.5ZM15.5 14.4584H16.5V13.4132L15.4558 13.4594L15.5 14.4584ZM16.0547 21.168L13.0547 19.168L11.9453 20.8321L14.9453 22.8321L16.0547 21.168ZM11.9453 19.168L8.9453 21.168L10.0547 22.8321L13.0547 20.8321L11.9453 19.168ZM13.3037 14.5123L13.2616 14.5618L14.7848 15.8579L14.8269 15.8084L13.3037 14.5123ZM11.7384 14.5618L11.6963 14.5123L10.173 15.8084L10.2152 15.8579L11.7384 14.5618ZM13.2616 14.5618C12.8623 15.0311 12.1377 15.0311 11.7384 14.5618L10.2152 15.8579C11.4131 17.2657 13.5869 17.2657 14.7848 15.8579L13.2616 14.5618ZM11.6963 14.5123C11.1527 13.8735 10.371 13.4959 9.5442 13.4594L9.4558 15.4574C9.73135 15.4696 9.99194 15.5955 10.1731 15.8084L11.6963 14.5123ZM10.5 22V14.4584H8.5V22H10.5ZM15.4558 13.4594C14.629 13.4959 13.8473 13.8735 13.3037 14.5123L14.8269 15.8084C15.0081 15.5955 15.2686 15.4696 15.5442 15.4574L15.4558 13.4594ZM14.5 14.4584V22H16.5V14.4584H14.5Z" fill="#828589"/>
<path d="M10.9768 2.79016C11.7754 1.8516 13.2246 1.8516 14.0232 2.79016L14.0654 2.83967C14.4819 3.32925 15.1084 3.58875 15.7492 3.53713L15.814 3.53191C17.0423 3.43295 18.0671 4.4577 17.9681 5.68606L17.9629 5.75086C17.9113 6.3916 18.1708 7.0181 18.6604 7.43468L18.7099 7.4768C19.6484 8.27541 19.6484 9.72462 18.7099 10.5232L18.6604 10.5654C18.1708 10.9819 17.9113 11.6084 17.9629 12.2492L17.9681 12.314C18.0671 13.5423 17.0423 14.5671 15.814 14.4681L15.7492 14.4629C15.6657 14.4562 15.5825 14.4547 15.5 14.4584C14.9488 14.4828 14.4277 14.7345 14.0654 15.1604L14.0232 15.2099C13.2246 16.1484 11.7754 16.1484 10.9768 15.2099L10.9347 15.1604C10.5723 14.7345 10.0512 14.4828 9.50002 14.4584C9.41749 14.4547 9.3343 14.4562 9.25086 14.4629L9.18606 14.4681C7.9577 14.5671 6.93295 13.5423 7.03191 12.314L7.03713 12.2492C7.08875 11.6084 6.82925 10.9819 6.33967 10.5654L6.29016 10.5232C5.3516 9.72462 5.3516 8.27541 6.29016 7.4768L6.33967 7.43468C6.82925 7.0181 7.08875 6.3916 7.03713 5.75086L7.03191 5.68606C6.93295 4.4577 7.9577 3.43295 9.18606 3.53191L9.25086 3.53713C9.8916 3.58875 10.5181 3.32925 10.9347 2.83967L10.9768 2.79016Z" fill="#B5BAC0" stroke="#B5BAC0" stroke-width="2"/>
<path d="M14.5 8L11.5 11L10.5 10" stroke="#EFF2F5" stroke-width="2" stroke-linecap="round" stroke-linejoin="round"/>
</svg>
