<svg width="41" height="40" viewBox="0 0 41 40" fill="none" xmlns="http://www.w3.org/2000/svg">
<rect x="0.5" width="40" height="40" rx="20" fill="#AFDE2E"/>
<path d="M21.25 12C21.25 11.5858 20.9142 11.25 20.5 11.25C20.0858 11.25 19.75 11.5858 19.75 12L19.75 19.25H12.5C12.0858 19.25 11.75 19.5858 11.75 20C11.75 20.4142 12.0858 20.75 12.5 20.75H19.75V28C19.75 28.4142 20.0858 28.75 20.5 28.75C20.9142 28.75 21.25 28.4142 21.25 28V20.75H28.5C28.9142 20.75 29.25 20.4142 29.25 20C29.25 19.5858 28.9142 19.25 28.5 19.25H21.25L21.25 12Z" fill="white" stroke="white" stroke-linecap="round"/>
</svg>
