<svg width="24" height="24" viewBox="0 0 24 24" fill="none" xmlns="http://www.w3.org/2000/svg">
<path d="M12 20L15 22V14.4584C14.4488 14.4827 13.9277 14.7345 13.5653 15.1603L13.5232 15.2099C12.7246 16.1484 11.2754 16.1484 10.4768 15.2099L10.4347 15.1603C10.0723 14.7345 9.55119 14.4827 9 14.4584V22L12 20Z" fill="#8F42E3"/>
<path d="M15 22L14.4453 22.8321C14.7522 23.0366 15.1467 23.0557 15.4719 22.8817C15.797 22.7077 16 22.3688 16 22H15ZM12 20L12.5547 19.168C12.2188 18.944 11.7812 18.944 11.4453 19.168L12 20ZM9 22H8C8 22.3688 8.20298 22.7077 8.52814 22.8817C8.8533 23.0557 9.24784 23.0366 9.5547 22.8321L9 22ZM13.5653 15.1603L12.8037 14.5123L12.8037 14.5123L13.5653 15.1603ZM13.5232 15.2099L14.2848 15.8579L14.2848 15.8579L13.5232 15.2099ZM10.4768 15.2099L9.71518 15.8579L9.71518 15.8579L10.4768 15.2099ZM10.4347 15.1603L11.1963 14.5123L11.1963 14.5123L10.4347 15.1603ZM9 14.4584L9.0442 13.4593L8 13.4131V14.4584H9ZM15 14.4584H16V13.4131L14.9558 13.4593L15 14.4584ZM15.5547 21.168L12.5547 19.168L11.4453 20.8321L14.4453 22.8321L15.5547 21.168ZM11.4453 19.168L8.4453 21.168L9.5547 22.8321L12.5547 20.8321L11.4453 19.168ZM12.8037 14.5123L12.7616 14.5618L14.2848 15.8579L14.3269 15.8084L12.8037 14.5123ZM11.2384 14.5618L11.1963 14.5123L9.67305 15.8084L9.71518 15.8579L11.2384 14.5618ZM12.7616 14.5618C12.3623 15.0311 11.6377 15.0311 11.2384 14.5618L9.71518 15.8579C10.9131 17.2657 13.0869 17.2657 14.2848 15.8579L12.7616 14.5618ZM11.1963 14.5123C10.6527 13.8735 9.87103 13.4959 9.0442 13.4593L8.9558 15.4574C9.23135 15.4696 9.49194 15.5955 9.67305 15.8084L11.1963 14.5123ZM10 22V14.4584H8V22H10ZM14.9558 13.4593C14.129 13.4959 13.3473 13.8735 12.8037 14.5123L14.3269 15.8084C14.5081 15.5955 14.7686 15.4696 15.0442 15.4574L14.9558 13.4593ZM14 14.4584V22H16V14.4584H14Z" fill="#8F42E3"/>
<path d="M10.4767 2.79015C11.2754 1.85159 12.7246 1.85159 13.5232 2.79015L13.5653 2.83966C13.9819 3.32923 14.6084 3.58874 15.2491 3.53712L15.3139 3.5319C16.5423 3.43294 17.567 4.45768 17.4681 5.68604L17.4628 5.75084C17.4112 6.39159 17.6707 7.01809 18.1603 7.43466L18.2098 7.47679C19.1484 8.2754 19.1484 9.7246 18.2098 10.5232L18.1603 10.5653C17.6707 10.9819 17.4112 11.6084 17.4628 12.2492L17.4681 12.314C17.567 13.5423 16.5423 14.5671 15.3139 14.4681L15.2491 14.4629C15.1657 14.4562 15.0825 14.4547 15 14.4584C14.4488 14.4827 13.9276 14.7345 13.5653 15.1603L13.5232 15.2099C12.7246 16.1484 11.2753 16.1484 10.4767 15.2099L10.4346 15.1603C10.0723 14.7345 9.55115 14.4827 8.99995 14.4584C8.91743 14.4547 8.83423 14.4562 8.7508 14.4629L8.686 14.4681C7.45764 14.5671 6.43289 13.5423 6.53185 12.314L6.53707 12.2492C6.58869 11.6084 6.32919 10.9819 5.83961 10.5653L5.7901 10.5232C4.85154 9.7246 4.85154 8.27539 5.7901 7.47679L5.83961 7.43466C6.32919 7.01809 6.58869 6.39159 6.53707 5.75084L6.53185 5.68604C6.43289 4.45768 7.45764 3.43294 8.686 3.5319L8.7508 3.53712C9.39154 3.58874 10.018 3.32923 10.4346 2.83966L10.4767 2.79015Z" fill="#BA84F6" stroke="#BA84F6" stroke-width="2"/>
<path d="M14 8L11 11L10 10" stroke="#E6D8F6" stroke-width="2" stroke-linecap="round" stroke-linejoin="round"/>
</svg>
