<svg width="36" height="36" viewBox="0 0 36 36" fill="none" xmlns="http://www.w3.org/2000/svg">
<path d="M20.9201 7.0497C19.3074 8.66241 16.6927 8.66241 15.08 7.0497C13.4672 5.43698 13.4672 2.82225 15.08 1.20954C16.6927 -0.403179 19.3074 -0.403179 20.9201 1.20954C22.5328 2.82225 22.5328 5.43698 20.9201 7.0497Z" fill="#61C203"/>
<path d="M27.8553 13.9848C26.2426 15.5976 23.6279 15.5976 22.0152 13.9848C20.4024 12.3721 20.4024 9.7574 22.0152 8.14468C23.6279 6.53196 26.2426 6.53196 27.8553 8.14468C29.468 9.7574 29.468 12.3721 27.8553 13.9848Z" fill="#FF1C4C"/>
<path d="M34.7905 20.92C33.1778 22.5328 30.5631 22.5328 28.9504 20.92C27.3377 19.3073 27.3377 16.6926 28.9504 15.0799C30.5631 13.4672 33.1778 13.4672 34.7905 15.0799C36.4032 16.6926 36.4032 19.3073 34.7905 20.92Z" fill="#FF1C4C"/>
<path d="M13.9849 13.9848C12.3722 15.5976 9.75746 15.5976 8.14474 13.9848C6.53203 12.3721 6.53203 9.7574 8.14474 8.14468C9.75746 6.53196 12.3722 6.53196 13.9849 8.14468C15.5976 9.7574 15.5976 12.3721 13.9849 13.9848Z" fill="#FF1C4C"/>
<path d="M20.9201 20.92C19.3074 22.5328 16.6927 22.5328 15.08 20.92C13.4672 19.3073 13.4672 16.6926 15.08 15.0799C16.6927 13.4672 19.3074 13.4672 20.9201 15.0799C22.5328 16.6926 22.5328 19.3073 20.9201 20.92Z" fill="#FF1C4C"/>
<path d="M27.8553 27.8553C26.2426 29.468 23.6279 29.468 22.0152 27.8553C20.4024 26.2425 20.4024 23.6278 22.0152 22.0151C23.6279 20.4024 26.2426 20.4024 27.8553 22.0151C29.468 23.6278 29.468 26.2425 27.8553 27.8553Z" fill="#FF1C4C"/>
<path d="M7.0497 20.92C5.43698 22.5328 2.82225 22.5328 1.20954 20.92C-0.403179 19.3073 -0.403179 16.6926 1.20954 15.0799C2.82225 13.4672 5.43698 13.4672 7.0497 15.0799C8.66241 16.6926 8.66241 19.3073 7.0497 20.92Z" fill="#FF1C4C"/>
<path d="M13.9849 27.8553C12.3722 29.468 9.75746 29.468 8.14474 27.8553C6.53203 26.2425 6.53203 23.6278 8.14474 22.0151C9.75746 20.4024 12.3722 20.4024 13.9849 22.0151C15.5976 23.6278 15.5976 26.2425 13.9849 27.8553Z" fill="#FF1C4C"/>
<path d="M20.9201 34.7905C19.3074 36.4032 16.6927 36.4032 15.08 34.7905C13.4672 33.1777 13.4672 30.563 15.08 28.9503C16.6927 27.3376 19.3074 27.3376 20.9201 28.9503C22.5328 30.563 22.5328 33.1777 20.9201 34.7905Z" fill="#FF1C4C"/>
</svg>
