<svg width="19" height="20" viewBox="0 0 19 20" fill="none" xmlns="http://www.w3.org/2000/svg">
<path d="M10.25 2C10.25 1.58579 9.91421 1.25 9.5 1.25C9.08579 1.25 8.75 1.58579 8.75 2L8.75 9.25H1.5C1.08579 9.25 0.75 9.58579 0.75 10C0.75 10.4142 1.08579 10.75 1.5 10.75H8.75V18C8.75 18.4142 9.08579 18.75 9.5 18.75C9.91421 18.75 10.25 18.4142 10.25 18V10.75H17.5C17.9142 10.75 18.25 10.4142 18.25 10C18.25 9.58579 17.9142 9.25 17.5 9.25H10.25L10.25 2Z" fill="white" stroke="white" stroke-linecap="round"/>
</svg>
