<svg width="36" height="36" viewBox="0 0 36 36" fill="none" xmlns="http://www.w3.org/2000/svg">
<path fill-rule="evenodd" clip-rule="evenodd" d="M14.6643 0.241984C9.08723 1.45345 4.63458 4.77521 2.0901 9.62285C0.487644 12.6755 -0.27452 16.5275 0.0894879 19.7331C0.398966 22.4587 1.39444 25.427 2.5932 27.199C2.89052 27.6382 3.13367 28.0422 3.13367 28.0967C3.13367 28.3362 4.37587 29.779 5.61539 30.9794C10.2309 35.4488 17.271 37.1428 23.2027 35.2114C26.5276 34.1287 28.8026 32.7074 31.0811 30.2896C34.5375 26.6213 36.2017 22.1459 35.9805 17.114C35.6507 9.61411 30.6781 3.15927 23.4258 0.817132C22.6392 0.562997 21.5182 0.270875 20.9346 0.167794C19.4983 -0.0859834 15.9825 -0.0444301 14.6643 0.241984ZM7.23019 8.73454C6.95843 9.00561 6.88728 9.23549 6.96827 9.58165C7.11165 10.1944 8.11339 12.1307 9.32752 14.1418L10.2865 15.7303L9.49772 18.1545C8.44897 21.378 8.0004 23.0242 7.68824 24.7949C7.45868 26.0974 7.45993 26.3128 7.69914 26.677C8.11428 27.3088 8.74879 27.2084 9.32502 26.4193C11.2709 23.7552 12.0325 22.8457 13.7702 21.1104C17.4337 17.4525 21.559 14.8448 27.1803 12.6338C28.262 12.2082 29.2879 11.743 29.4599 11.5996C29.8212 11.2984 29.8779 10.4131 29.5492 10.2008C29.4264 10.1215 26.2283 10.0489 22.4425 10.0394C14.4644 10.0198 12.2294 9.78817 8.71446 8.61754C7.72632 8.28833 7.67322 8.29261 7.23019 8.73454ZM27.9225 14.0683C23.3958 15.9058 19.3737 18.2211 16.8287 20.4545C14.2 22.7612 10.9455 26.5817 9.76733 28.7445C9.28032 29.6381 9.34594 30.3816 9.92788 30.5658C10.5349 30.7579 10.9793 30.4868 11.483 29.6176C12.2793 28.2428 14.3548 25.5531 15.7913 24.0345C17.4623 22.2679 19.5955 20.5731 22.1743 18.9634C23.2966 18.2631 26.3699 16.7819 28.4318 15.948C30.984 14.916 31.3478 14.6422 31.1015 13.9394C30.8353 13.1795 30.0314 13.2121 27.9225 14.0683Z" fill="#009B47"/>
</svg>
