<svg width="24" height="24" viewBox="0 0 24 24" fill="none" xmlns="http://www.w3.org/2000/svg">
<g clip-path="url(#clip0_1_26707)">
<path d="M4 4H20V7H4V4Z" fill="#91C10E"/>
<path d="M4 4V3C3.44772 3 3 3.44772 3 4H4ZM20 4H21C21 3.44772 20.5523 3 20 3V4ZM20 7V8H21V7H20ZM4 7H3V8H4V7ZM4 5H20V3H4V5ZM19 4V7H21V4H19ZM20 6H4V8H20V6ZM5 7V4H3V7H5Z" fill="#91C10E"/>
<path d="M4 9H20V18C20 19.1046 19.1046 20 18 20H6C4.89543 20 4 19.1046 4 18V9Z" fill="#AFDE2E" stroke="#AFDE2E" stroke-width="2" stroke-linecap="round"/>
<path d="M16 3V5" stroke="#AFDE2E" stroke-width="2" stroke-linecap="round" stroke-linejoin="round"/>
<path d="M8 3V5" stroke="#AFDE2E" stroke-width="2" stroke-linecap="round" stroke-linejoin="round"/>
<path d="M8 12H12" stroke="white" stroke-width="2" stroke-linecap="round" stroke-linejoin="round"/>
<path d="M8 16H16" stroke="white" stroke-width="2" stroke-linecap="round" stroke-linejoin="round"/>
</g>
<defs>
<clipPath id="clip0_1_26707">
<rect width="24" height="24" fill="white"/>
</clipPath>
</defs>
</svg>
